<svg width="187" height="194" viewBox="0 0 187 194" fill="none" xmlns="http://www.w3.org/2000/svg">
<path d="M180.455 69H140.636C139.909 63.8485 138.424 59.2727 136.182 55.2727C133.939 51.2121 131.061 47.7576 127.545 44.9091C124.03 42.0606 119.97 39.8788 115.364 38.3636C110.818 36.8485 105.879 36.0909 100.545 36.0909C90.9091 36.0909 82.5152 38.4848 75.3636 43.2727C68.2121 48 62.6667 54.9091 58.7273 64C54.7879 73.0303 52.8182 84 52.8182 96.9091C52.8182 110.182 54.7879 121.333 58.7273 130.364C62.7273 139.394 68.303 146.212 75.4545 150.818C82.6061 155.424 90.8788 157.727 100.273 157.727C105.545 157.727 110.424 157.03 114.909 155.636C119.455 154.242 123.485 152.212 127 149.545C130.515 146.818 133.424 143.515 135.727 139.636C138.091 135.758 139.727 131.333 140.636 126.364L180.455 126.545C179.424 135.091 176.848 143.333 172.727 151.273C168.667 159.152 163.182 166.212 156.273 172.455C149.424 178.636 141.242 183.545 131.727 187.182C122.273 190.758 111.576 192.545 99.6364 192.545C83.0303 192.545 68.1818 188.788 55.0909 181.273C42.0606 173.758 31.7576 162.879 24.1818 148.636C16.6667 134.394 12.9091 117.152 12.9091 96.9091C12.9091 76.6061 16.7273 59.3333 24.3636 45.0909C32 30.8485 42.3636 20 55.4545 12.5455C68.5455 5.0303 83.2727 1.27272 99.6364 1.27272C110.424 1.27272 120.424 2.78787 129.636 5.81818C138.909 8.84848 147.121 13.2727 154.273 19.0909C161.424 24.8485 167.242 31.9091 171.727 40.2727C176.273 48.6364 179.182 58.2121 180.455 69Z" fill="white" fill-opacity="0.1"/>
<path d="M99.4996 192.508V158.008C99.4996 158.008 78.9996 158.008 66.4996 142.508C66.4996 142.508 52.4996 126.008 52.9996 94.5082C53.4996 63.0082 67.4996 50.5082 67.4996 50.5082C67.4996 50.5082 78.9996 36.0082 97.4996 36.5082C97.4996 36.5082 118.5 34.0082 128.5 45.5082C138.5 57.0082 141 69.0082 141 69.0082H180.5C180.5 69.0082 177.5 39 159 23C159 23 130 -1.99999 99.4996 1.00822C99.4996 1.00822 56.9998 -2.5 32.4998 31.5C7.99981 65.5 13.4997 94.5082 13.4997 94.5082C12.1802 142.016 33 161.5 33 161.5C67.5 196.5 99.4996 192.508 99.4996 192.508Z" fill="white" stroke="white"/>
</svg>
