<svg width="162" height="190" viewBox="0 0 162 190" fill="none" xmlns="http://www.w3.org/2000/svg">
<path d="M16.1818 188V1.81818H89.6364C103.758 1.81818 115.788 4.51515 125.727 9.90909C135.667 15.2424 143.242 22.6667 148.455 32.1818C153.727 41.6364 156.364 52.5455 156.364 64.9091C156.364 77.2727 153.697 88.1818 148.364 97.6364C143.03 107.091 135.303 114.455 125.182 119.727C115.121 125 102.939 127.636 88.6364 127.636H41.8182V96.0909H82.2727C89.8485 96.0909 96.0909 94.7879 101 92.1818C105.97 89.5151 109.667 85.8485 112.091 81.1818C114.576 76.4545 115.818 71.0303 115.818 64.9091C115.818 58.7273 114.576 53.3333 112.091 48.7273C109.667 44.0606 105.97 40.4545 101 37.9091C96.0303 35.303 89.7273 34 82.0909 34H55.5455V188H16.1818Z" fill="white" fill-opacity="0.1"/>
<path d="M95.5 1.5H16V188H56V127.5H89.5L89 96.5H56V33.5C56 33.5 90 34 95.5 35.5C101 37 108 43 111 46C114 49 115.5 58.5 115.5 58.5H156C156 58.5 154.5 47.5 153.5 44C152.5 40.5 147 30.5 147 30.5C132.655 10.8772 121.228 4.55682 95.5 1.5Z" fill="white" stroke="white"/>
</svg>
