<svg width="187" height="192" viewBox="0 0 187 192" fill="none" xmlns="http://www.w3.org/2000/svg">
<path d="M117.182 56.3636C116.455 49.0303 113.333 43.3333 107.818 39.2727C102.303 35.2121 94.8182 33.1818 85.3636 33.1818C78.9394 33.1818 73.5152 34.0909 69.0909 35.9091C64.6667 37.6667 61.2727 40.1212 58.9091 43.2727C56.6061 46.4242 55.4545 50 55.4545 54C55.3333 57.3333 56.0303 60.2424 57.5455 62.7273C59.1212 65.2121 61.2727 67.3636 64 69.1818C66.7273 70.9394 69.8788 72.4848 73.4545 73.8182C77.0303 75.0909 80.8485 76.1818 84.9091 77.0909L101.636 81.0909C109.758 82.9091 117.212 85.3333 124 88.3636C130.788 91.3939 136.667 95.1212 141.636 99.5454C146.606 103.97 150.455 109.182 153.182 115.182C155.97 121.182 157.394 128.061 157.455 135.818C157.394 147.212 154.485 157.091 148.727 165.455C143.03 173.758 134.788 180.212 124 184.818C113.273 189.364 100.333 191.636 85.1818 191.636C70.1515 191.636 57.0606 189.333 45.9091 184.727C34.8182 180.121 26.1515 173.303 19.9091 164.273C13.7273 155.182 10.4848 143.939 10.1818 130.545H48.2727C48.697 136.788 50.4848 142 53.6364 146.182C56.8485 150.303 61.1212 153.424 66.4545 155.545C71.8485 157.606 77.9394 158.636 84.7273 158.636C91.3939 158.636 97.1818 157.667 102.091 155.727C107.061 153.788 110.909 151.091 113.636 147.636C116.364 144.182 117.727 140.212 117.727 135.727C117.727 131.545 116.485 128.03 114 125.182C111.576 122.333 108 119.909 103.273 117.909C98.6061 115.909 92.8788 114.091 86.0909 112.455L65.8182 107.364C50.1212 103.545 37.7273 97.5758 28.6364 89.4545C19.5455 81.3333 15.0303 70.3939 15.0909 56.6364C15.0303 45.3636 18.0303 35.5151 24.0909 27.0909C30.2121 18.6667 38.6061 12.0909 49.2727 7.36363C59.9394 2.63636 72.0606 0.27272 85.6364 0.27272C99.4545 0.27272 111.515 2.63636 121.818 7.36363C132.182 12.0909 140.242 18.6667 146 27.0909C151.758 35.5151 154.727 45.2727 154.909 56.3636H117.182Z" fill="white" fill-opacity="0.1"/>
<path d="M154.699 56.5082H117C117 56.5082 115 45.4658 108.5 40.0082C104.278 36.4635 100.5 35.5082 95.5 34.5082C90.5 33.5082 82 33.5082 79.5 33.5082C77 33.5082 65.75 35.5082 61 40.5082C56.25 45.5082 55 52.0082 55 54.0082C55 56.0082 53.5 58.7582 59.5 65.5082C65.5 72.2582 73.5 74.5082 73.5 74.5082C73.5 74.5082 104 80.5082 117 85.5082C130 90.5082 136.5 95.5082 136.5 95.5082C136.5 95.5082 145.5 102.008 150.5 111.008C155.5 120.008 157 131.008 157 131.008H117.158C117.158 131.008 116.5 122.508 103.5 118.008L84 112.008L58 105.008C43 101.008 33.5 94.0082 33.5 94.0082C33.5 94.0082 23.75 87.5082 19 77.5082C14.25 67.5082 15 55.0082 15 55.0082C15 55.0082 15.9761 43.5082 20.5 34.0082C25.0238 24.5082 33 16.5082 33 16.5082C33 16.5082 42 9.50817 57 5.00818C72 0.50819 84 0.508167 84 0.508167C84 0.508167 101.5 0.258178 112 3.50818C122.5 6.75818 137 17.0082 137 17.0082C137 17.0082 144.35 21.7582 150 35.0082C155.65 48.2582 154.699 56.5082 154.699 56.5082Z" fill="white" stroke="white"/>
</svg>
