<svg width="187" height="192" viewBox="0 0 187 192" fill="none" xmlns="http://www.w3.org/2000/svg">
<path d="M131.182 1.81818H170.545V122.727C170.545 136.303 167.303 148.182 160.818 158.364C154.394 168.545 145.394 176.485 133.818 182.182C122.242 187.818 108.758 190.636 93.3636 190.636C77.9091 190.636 64.3939 187.818 52.8182 182.182C41.2424 176.485 32.2424 168.545 25.8182 158.364C19.3939 148.182 16.1818 136.303 16.1818 122.727V1.81818H55.5455V119.364C55.5455 126.455 57.0909 132.758 60.1818 138.273C63.3333 143.788 67.7576 148.121 73.4545 151.273C79.1515 154.424 85.7879 156 93.3636 156C101 156 107.636 154.424 113.273 151.273C118.97 148.121 123.364 143.788 126.455 138.273C129.606 132.758 131.182 126.455 131.182 119.364V1.81818Z" fill="white" fill-opacity="0.1"/>
<path d="M55.1582 2.00818H16.0009V123.008C16.0009 123.008 14.4996 159.008 43 176.008C71.5004 193.008 93 190.5 93 190.5L93.5 156C93.5 156 77.8418 156.008 66.5 147.008C55.1582 138.008 55.1582 123.008 55.1582 123.008V2.00818Z" fill="white"/>
<path d="M170 66.5082L131.5 66.5V2H170.5L170 66.5082Z" fill="white"/>
<path d="M55.1582 2.00818H16.0009V123.008C16.0009 123.008 14.4996 159.008 43 176.008C71.5004 193.008 93 190.5 93 190.5L93.5 156C93.5 156 77.8418 156.008 66.5 147.008C55.1582 138.008 55.1582 123.008 55.1582 123.008V2.00818Z" stroke="white"/>
<path d="M170 66.5082L131.5 66.5V2H170.5L170 66.5082Z" stroke="white"/>
</svg>
